<?xml version="1.0" encoding="UTF-8" standalone="no"?>
<svg
   width="24"
   height="24"
   viewBox="0 0 24 24"
   version="1.1"
   id="svg28"
   sodipodi:docname="instagram.svg"
   inkscape:version="1.2.1 (9c6d41e410, 2022-07-14)"
   xmlns:inkscape="http://www.inkscape.org/namespaces/inkscape"
   xmlns:sodipodi="http://sodipodi.sourceforge.net/DTD/sodipodi-0.dtd"
   xmlns:xlink="http://www.w3.org/1999/xlink"
   xmlns="http://www.w3.org/2000/svg"
   xmlns:svg="http://www.w3.org/2000/svg">
  <sodipodi:namedview
     id="namedview30"
     pagecolor="#505050"
     bordercolor="#ffffff"
     borderopacity="1"
     inkscape:showpageshadow="0"
     inkscape:pageopacity="0"
     inkscape:pagecheckerboard="1"
     inkscape:deskcolor="#505050"
     showgrid="false"
     inkscape:zoom="6.3106061"
     inkscape:cx="39.219688"
     inkscape:cy="40.804322"
     inkscape:window-width="1920"
     inkscape:window-height="991"
     inkscape:window-x="299"
     inkscape:window-y="1431"
     inkscape:window-maximized="1"
     inkscape:current-layer="svg28" />
  <defs
     id="defs20">
    <linearGradient
       id="b">
      <stop
         offset="0"
         stop-color="#3771c8"
         id="stop2" />
      <stop
         stop-color="#3771c8"
         offset=".128"
         id="stop4" />
      <stop
         offset="1"
         stop-color="#60f"
         stop-opacity="0"
         id="stop6" />
    </linearGradient>
    <linearGradient
       id="a">
      <stop
         offset="0"
         stop-color="#fd5"
         id="stop9" />
      <stop
         offset=".1"
         stop-color="#fd5"
         id="stop11" />
      <stop
         offset=".5"
         stop-color="#ff543e"
         id="stop13" />
      <stop
         offset="1"
         stop-color="#c837ab"
         id="stop15" />
    </linearGradient>
    <radialGradient
       id="c"
       cx="158.429"
       cy="578.08801"
       r="65"
       xlink:href="#a"
       gradientUnits="userSpaceOnUse"
       gradientTransform="matrix(0,-0.36583522,0.34034832,0,-190.37627,83.800369)"
       fx="158.429"
       fy="578.08801" />
    <radialGradient
       id="d"
       cx="147.694"
       cy="473.45499"
       r="65"
       xlink:href="#b"
       gradientUnits="userSpaceOnUse"
       gradientTransform="matrix(0.03210596,0.16034893,-0.66113108,0.13237757,304.25381,-84.62895)"
       fx="147.694"
       fy="473.45499" />
  </defs>
  <path
     fill="url(#c)"
     d="M 12.003897,0 C 6.994008,0 5.528807,0.0052 5.243999,0.0288 4.215884,0.11426 3.576128,0.276138 2.879151,0.62315 2.342021,0.889869 1.918409,1.199041 1.500334,1.632437 0.738938,2.422811 0.277487,3.395182 0.110441,4.551026 0.029221,5.112152 0.005599,5.226592 8e-4,8.09276 c -0.0018,0.95539 0,2.212754 0,3.899267 0,5.005828 0.0055,6.469553 0.02953,6.753807 0.08306,1.000427 0.239955,1.629848 0.5722,2.318333 0.634958,1.317907 1.847653,2.307259 3.276307,2.67642 0.494676,0.127361 1.041035,0.197502 1.742442,0.230726 0.297175,0.01292 3.326144,0.02215 6.356958,0.02215 3.030815,0 6.06163,-0.0037 6.351421,-0.01846 0.812155,-0.03821 1.283759,-0.10152 1.805199,-0.236264 1.437884,-0.371007 2.628429,-1.345593 3.276307,-2.681957 0.325785,-0.671873 0.490985,-1.325289 0.56574,-2.27348 0.01624,-0.20673 0.02307,-3.502787 0.02307,-6.794415 0,-3.292181 -0.0074,-6.582147 -0.02363,-6.788877 C 23.900664,4.236499 23.735467,3.588621 23.399161,2.903826 23.123213,2.343255 22.816809,1.924626 22.371969,1.496583 21.578088,0.738326 20.607193,0.276874 19.450242,0.110013 18.88967,0.028983 18.777999,0.004987 15.909615,3e-6 Z"
     id="path22"
     style="fill:url(#c);stroke-width:0.184581" />
  <path
     fill="url(#d)"
     d="M 12.003897,0 C 6.994008,0 5.528807,0.0052 5.243999,0.0288 4.215884,0.11426 3.576128,0.276138 2.879151,0.62315 2.342021,0.889869 1.918409,1.199041 1.500334,1.632437 0.738938,2.422811 0.277487,3.395182 0.110441,4.551026 0.029221,5.112152 0.005599,5.226592 8e-4,8.09276 c -0.0018,0.95539 0,2.212754 0,3.899267 0,5.005828 0.0055,6.469553 0.02953,6.753807 0.08306,1.000427 0.239955,1.629848 0.5722,2.318333 0.634958,1.317907 1.847653,2.307259 3.276307,2.67642 0.494676,0.127361 1.041035,0.197502 1.742442,0.230726 0.297175,0.01292 3.326144,0.02215 6.356958,0.02215 3.030815,0 6.06163,-0.0037 6.351421,-0.01846 0.812155,-0.03821 1.283759,-0.10152 1.805199,-0.236264 1.437884,-0.371007 2.628429,-1.345593 3.276307,-2.681957 0.325785,-0.671873 0.490985,-1.325289 0.56574,-2.27348 0.01624,-0.20673 0.02307,-3.502787 0.02307,-6.794415 0,-3.292181 -0.0074,-6.582147 -0.02363,-6.788877 C 23.900664,4.236499 23.735467,3.588621 23.399161,2.903826 23.123213,2.343255 22.816809,1.924626 22.371969,1.496583 21.578088,0.738326 20.607193,0.276874 19.450242,0.110013 18.88967,0.028983 18.777999,0.004987 15.909615,3e-6 Z"
     id="path24"
     style="fill:url(#d);stroke-width:0.184581" />
  <path
     fill="#ffffff"
     d="m 11.99836,3.137872 c -2.406194,0 -2.708168,0.01052 -3.653221,0.05353 C 7.401932,3.234592 6.758114,3.38392 6.194774,3.603017 5.612053,3.829313 5.117746,4.132025 4.625284,4.624671 4.132454,5.117132 3.829742,5.611439 3.602707,6.193976 3.383056,6.757501 3.233546,7.401503 3.191093,8.344341 c -0.04227,0.945053 -0.05334,1.247211 -0.05334,3.653405 0,2.406194 0.0107,2.707245 0.05353,3.652298 0.04338,0.943207 0.192702,1.587025 0.411615,2.150365 0.226481,0.582721 0.529193,1.077028 1.021839,1.569489 0.492276,0.492831 0.986583,0.796281 1.568935,1.022577 0.56371,0.219098 1.207712,0.368423 2.150734,0.411615 0.945054,0.04301 1.246843,0.05353 3.652852,0.05353 2.406378,0 2.707429,-0.01052 3.652483,-0.05353 0.943207,-0.04319 1.587763,-0.192517 2.151472,-0.411615 0.582537,-0.226296 1.076105,-0.529746 1.568382,-1.022577 0.49283,-0.492461 0.795543,-0.986768 1.022577,-1.569304 0.217805,-0.563525 0.367315,-1.207527 0.411615,-2.150365 0.04245,-0.945053 0.05353,-1.246289 0.05353,-3.652483 0,-2.406194 -0.01108,-2.708168 -0.05353,-3.653221 C 20.759487,7.401318 20.609977,6.757501 20.392172,6.194161 20.165138,5.611439 19.862425,5.117132 19.369595,4.624671 18.876765,4.131841 18.383934,3.829128 17.800659,3.603017 17.235842,3.38392 16.591656,3.234594 15.648448,3.191402 14.703395,3.148392 14.402529,3.137872 11.995597,3.137872 Z m -0.794805,1.596623 c 0.235894,-3.7e-4 0.499106,0 0.794805,0 2.365586,0 2.645964,0.0085 3.580126,0.05094 0.863838,0.0395 1.332673,0.183842 1.644983,0.305112 0.413461,0.160585 0.708236,0.352549 1.018147,0.662644 0.310096,0.310096 0.50206,0.605425 0.663014,1.018886 0.12127,0.311941 0.265796,0.780776 0.305112,1.644613 0.04245,0.933979 0.05168,1.214541 0.05168,3.57902 0,2.364478 -0.0092,2.645041 -0.05168,3.579019 -0.0395,0.863838 -0.183842,1.332673 -0.305112,1.644614 -0.160585,0.413461 -0.352918,0.707867 -0.663014,1.017778 -0.310095,0.310095 -0.604501,0.502059 -1.018147,0.662644 -0.311941,0.121824 -0.781145,0.265797 -1.644983,0.305297 -0.933978,0.04245 -1.21454,0.05168 -3.580126,0.05168 -2.365771,0 -2.646149,-0.0092 -3.580127,-0.05168 C 7.554395,19.165192 7.08556,19.02085 6.773065,18.899581 6.359604,18.738996 6.064275,18.547032 5.75418,18.236936 5.444084,17.926841 5.25212,17.63225 5.091166,17.218605 4.969897,16.906663 4.82537,16.437828 4.786054,15.573991 4.743604,14.640013 4.735114,14.35945 4.735114,11.993495 c 0,-2.365955 0.0085,-2.645041 0.05094,-3.579019 C 4.825554,7.550638 4.969897,7.081803 5.091166,6.769493 5.251751,6.356032 5.444084,6.060703 5.75418,5.750607 6.064275,5.440512 6.359604,5.248548 6.773065,5.087593 7.085376,4.96577 7.554395,4.821797 8.418233,4.782112 9.235556,4.745192 9.552296,4.734122 11.203555,4.732272 Z m 5.524131,1.471108 c -0.586967,0 -1.063185,0.475664 -1.063185,1.062815 0,0.586967 0.476218,1.063185 1.063185,1.063185 0.586966,0 1.063184,-0.476218 1.063184,-1.063185 0,-0.586966 -0.476218,-1.063185 -1.063184,-1.063185 z M 11.99836,7.447831 c -2.512697,0 -4.549914,2.037216 -4.549914,4.549913 0,2.512697 2.037217,4.548991 4.549914,4.548991 2.512696,0 4.549175,-2.036294 4.549175,-4.548991 0,-2.512697 -2.036663,-4.549913 -4.54936,-4.549913 z m 0,1.596622 c 1.630954,0 2.95329,1.322152 2.95329,2.953291 0,1.630955 -1.322336,2.953291 -2.95329,2.953291 -1.63114,0 -2.953291,-1.322336 -2.953291,-2.953291 0,-1.631139 1.322151,-2.953291 2.953291,-2.953291 z"
     id="path26"
     style="stroke-width:0.184581" />
</svg>
