<?xml version="1.0" standalone="no"?>
<!DOCTYPE svg PUBLIC "-//W3C//DTD SVG 20010904//EN"
 "http://www.w3.org/TR/2001/REC-SVG-20010904/DTD/svg10.dtd">
<svg version="1.0" xmlns="http://www.w3.org/2000/svg"
 width="1024.000000pt" height="1024.000000pt" viewBox="0 0 1024.000000 1024.000000"
 preserveAspectRatio="xMidYMid meet">
<metadata>
Created by potrace 1.14, written by Peter Selinger 2001-2017
</metadata>
<g transform="translate(0.000000,1024.000000) scale(0.100000,-0.100000)"
fill="#000000" stroke="none">
<path d="M6630 8158 c-25 -4 -63 -10 -85 -13 -81 -11 -271 -58 -369 -92 -176
-60 -373 -163 -516 -267 -160 -117 -354 -311 -460 -458 -23 -32 -46 -58 -51
-58 -5 0 -20 9 -32 21 -83 79 -418 326 -525 387 -179 102 -390 201 -522 245
-67 23 -250 74 -290 82 -177 33 -287 43 -450 43 -380 -2 -677 -83 -1045 -287
-45 -24 -227 -147 -250 -168 -11 -10 -40 -34 -65 -53 -71 -55 -188 -183 -279
-305 -29 -38 -59 -78 -66 -87 -24 -29 -129 -200 -162 -263 -67 -127 -160 -419
-179 -560 -3 -27 -8 -59 -10 -70 -24 -124 -23 -509 1 -682 20 -148 52 -297 99
-458 79 -276 265 -618 484 -891 92 -115 310 -340 426 -440 38 -32 74 -64 80
-69 6 -6 36 -30 66 -55 30 -24 62 -52 70 -60 8 -8 67 -60 130 -115 125 -108
178 -156 220 -195 14 -14 50 -45 80 -70 29 -25 65 -56 79 -70 14 -14 46 -41
71 -61 25 -20 59 -50 75 -65 17 -16 43 -39 60 -52 16 -13 52 -43 80 -67 58
-50 136 -115 183 -153 18 -15 40 -33 48 -40 19 -18 415 -332 450 -357 15 -11
32 -25 38 -30 6 -6 38 -31 71 -55 33 -25 62 -47 65 -50 3 -3 57 -46 120 -95
63 -49 119 -92 125 -97 5 -5 105 -83 220 -174 116 -91 225 -178 244 -192 18
-15 43 -35 55 -46 11 -10 48 -39 81 -64 33 -26 66 -52 73 -59 18 -17 28 -16
50 4 11 10 38 34 62 53 24 19 76 61 114 93 39 32 89 73 110 90 22 18 48 40 58
50 10 9 20 17 23 17 3 0 13 8 23 18 10 9 30 26 43 37 13 11 49 40 79 65 30 25
63 52 73 60 10 8 31 26 47 40 16 14 34 30 42 35 18 14 120 97 134 110 6 5 31
26 54 45 24 19 62 51 85 70 23 19 61 51 85 70 49 39 172 141 210 173 14 12 59
49 100 82 41 33 81 67 90 75 9 8 36 31 60 50 24 19 63 51 86 70 42 36 111 93
429 355 99 82 216 178 260 215 75 62 235 194 280 231 11 9 65 54 120 99 151
125 493 478 606 625 13 17 26 32 29 35 17 16 100 132 151 212 156 241 335 680
378 924 6 32 13 73 16 89 25 146 26 467 0 635 -2 14 -9 59 -14 100 -17 117
-21 142 -31 190 -5 25 -12 59 -14 75 -30 186 -100 382 -195 550 -34 59 -123
189 -133 193 -4 2 -8 10 -8 17 0 7 -3 15 -7 17 -5 2 -25 23 -47 48 -116 134
-262 270 -366 340 -19 13 -37 27 -40 30 -8 10 -142 95 -201 128 -65 35 -142
76 -149 77 -3 1 -32 14 -65 29 -53 24 -214 82 -255 92 -28 6 -205 42 -245 49
-59 11 -512 13 -565 3z"/>
</g>
</svg>
